<?xml version="1.0" encoding="utf-8" standalone="no"?>
<!DOCTYPE svg PUBLIC "-//W3C//DTD SVG 1.1//EN"
  "http://www.w3.org/Graphics/SVG/1.1/DTD/svg11.dtd">
<svg xmlns:xlink="http://www.w3.org/1999/xlink" width="460.8pt" height="345.6pt" viewBox="0 0 460.8 345.6" xmlns="http://www.w3.org/2000/svg" version="1.1">
 <metadata>
  <rdf:RDF xmlns:dc="http://purl.org/dc/elements/1.1/" xmlns:cc="http://creativecommons.org/ns#" xmlns:rdf="http://www.w3.org/1999/02/22-rdf-syntax-ns#">
   <cc:Work>
    <dc:type rdf:resource="http://purl.org/dc/dcmitype/StillImage"/>
    <dc:date>2025-02-17T19:24:19.669076</dc:date>
    <dc:format>image/svg+xml</dc:format>
    <dc:creator>
     <cc:Agent>
      <dc:title>Matplotlib v3.9.2, https://matplotlib.org/</dc:title>
     </cc:Agent>
    </dc:creator>
   </cc:Work>
  </rdf:RDF>
 </metadata>
 <defs>
  <style type="text/css">*{stroke-linejoin: round; stroke-linecap: butt}</style>
 </defs>
 <g id="figure_1">
  <g id="patch_1">
   <path d="M 0 345.6 
L 460.8 345.6 
L 460.8 0 
L 0 0 
z
" style="fill: #ffffff"/>
  </g>
  <g id="axes_1">
   <g id="patch_2">
    <path d="M 57.6 307.584 
L 414.72 307.584 
L 414.72 41.472 
L 57.6 41.472 
z
" style="fill: #ffffff"/>
   </g>
   <g id="matplotlib.axis_1">
    <g id="xtick_1">
     <g id="line2d_1">
      <defs>
       <path id="mb9a58f31a9" d="M 0 0 
L 0 3.5 
" style="stroke: #000000; stroke-width: 0.8"/>
      </defs>
      <g>
       <use xlink:href="#mb9a58f31a9" x="73.832727" y="307.584" style="stroke: #000000; stroke-width: 0.8"/>
      </g>
     </g>
     <g id="text_1">
      <!-- 0 -->
      <g transform="translate(70.651477 322.182437) scale(0.1 -0.1)">
       <defs>
        <path id="DejaVuSans-30" d="M 2034 4250 
Q 1547 4250 1301 3770 
Q 1056 3291 1056 2328 
Q 1056 1369 1301 889 
Q 1547 409 2034 409 
Q 2525 409 2770 889 
Q 3016 1369 3016 2328 
Q 3016 3291 2770 3770 
Q 2525 4250 2034 4250 
z
M 2034 4750 
Q 2819 4750 3233 4129 
Q 3647 3509 3647 2328 
Q 3647 1150 3233 529 
Q 2819 -91 2034 -91 
Q 1250 -91 836 529 
Q 422 1150 422 2328 
Q 422 3509 836 4129 
Q 1250 4750 2034 4750 
z
" transform="scale(0.015625)"/>
       </defs>
       <use xlink:href="#DejaVuSans-30"/>
      </g>
     </g>
    </g>
    <g id="xtick_2">
     <g id="line2d_2">
      <g>
       <use xlink:href="#mb9a58f31a9" x="139.419504" y="307.584" style="stroke: #000000; stroke-width: 0.8"/>
      </g>
     </g>
     <g id="text_2">
      <!-- 20 -->
      <g transform="translate(133.057004 322.182437) scale(0.1 -0.1)">
       <defs>
        <path id="DejaVuSans-32" d="M 1228 531 
L 3431 531 
L 3431 0 
L 469 0 
L 469 531 
Q 828 903 1448 1529 
Q 2069 2156 2228 2338 
Q 2531 2678 2651 2914 
Q 2772 3150 2772 3378 
Q 2772 3750 2511 3984 
Q 2250 4219 1831 4219 
Q 1534 4219 1204 4116 
Q 875 4013 500 3803 
L 500 4441 
Q 881 4594 1212 4672 
Q 1544 4750 1819 4750 
Q 2544 4750 2975 4387 
Q 3406 4025 3406 3419 
Q 3406 3131 3298 2873 
Q 3191 2616 2906 2266 
Q 2828 2175 2409 1742 
Q 1991 1309 1228 531 
z
" transform="scale(0.015625)"/>
       </defs>
       <use xlink:href="#DejaVuSans-32"/>
       <use xlink:href="#DejaVuSans-30" x="63.623047"/>
      </g>
     </g>
    </g>
    <g id="xtick_3">
     <g id="line2d_3">
      <g>
       <use xlink:href="#mb9a58f31a9" x="205.006281" y="307.584" style="stroke: #000000; stroke-width: 0.8"/>
      </g>
     </g>
     <g id="text_3">
      <!-- 40 -->
      <g transform="translate(198.643781 322.182437) scale(0.1 -0.1)">
       <defs>
        <path id="DejaVuSans-34" d="M 2419 4116 
L 825 1625 
L 2419 1625 
L 2419 4116 
z
M 2253 4666 
L 3047 4666 
L 3047 1625 
L 3713 1625 
L 3713 1100 
L 3047 1100 
L 3047 0 
L 2419 0 
L 2419 1100 
L 313 1100 
L 313 1709 
L 2253 4666 
z
" transform="scale(0.015625)"/>
       </defs>
       <use xlink:href="#DejaVuSans-34"/>
       <use xlink:href="#DejaVuSans-30" x="63.623047"/>
      </g>
     </g>
    </g>
    <g id="xtick_4">
     <g id="line2d_4">
      <g>
       <use xlink:href="#mb9a58f31a9" x="270.593058" y="307.584" style="stroke: #000000; stroke-width: 0.8"/>
      </g>
     </g>
     <g id="text_4">
      <!-- 60 -->
      <g transform="translate(264.230558 322.182437) scale(0.1 -0.1)">
       <defs>
        <path id="DejaVuSans-36" d="M 2113 2584 
Q 1688 2584 1439 2293 
Q 1191 2003 1191 1497 
Q 1191 994 1439 701 
Q 1688 409 2113 409 
Q 2538 409 2786 701 
Q 3034 994 3034 1497 
Q 3034 2003 2786 2293 
Q 2538 2584 2113 2584 
z
M 3366 4563 
L 3366 3988 
Q 3128 4100 2886 4159 
Q 2644 4219 2406 4219 
Q 1781 4219 1451 3797 
Q 1122 3375 1075 2522 
Q 1259 2794 1537 2939 
Q 1816 3084 2150 3084 
Q 2853 3084 3261 2657 
Q 3669 2231 3669 1497 
Q 3669 778 3244 343 
Q 2819 -91 2113 -91 
Q 1303 -91 875 529 
Q 447 1150 447 2328 
Q 447 3434 972 4092 
Q 1497 4750 2381 4750 
Q 2619 4750 2861 4703 
Q 3103 4656 3366 4563 
z
" transform="scale(0.015625)"/>
       </defs>
       <use xlink:href="#DejaVuSans-36"/>
       <use xlink:href="#DejaVuSans-30" x="63.623047"/>
      </g>
     </g>
    </g>
    <g id="xtick_5">
     <g id="line2d_5">
      <g>
       <use xlink:href="#mb9a58f31a9" x="336.179835" y="307.584" style="stroke: #000000; stroke-width: 0.8"/>
      </g>
     </g>
     <g id="text_5">
      <!-- 80 -->
      <g transform="translate(329.817335 322.182437) scale(0.1 -0.1)">
       <defs>
        <path id="DejaVuSans-38" d="M 2034 2216 
Q 1584 2216 1326 1975 
Q 1069 1734 1069 1313 
Q 1069 891 1326 650 
Q 1584 409 2034 409 
Q 2484 409 2743 651 
Q 3003 894 3003 1313 
Q 3003 1734 2745 1975 
Q 2488 2216 2034 2216 
z
M 1403 2484 
Q 997 2584 770 2862 
Q 544 3141 544 3541 
Q 544 4100 942 4425 
Q 1341 4750 2034 4750 
Q 2731 4750 3128 4425 
Q 3525 4100 3525 3541 
Q 3525 3141 3298 2862 
Q 3072 2584 2669 2484 
Q 3125 2378 3379 2068 
Q 3634 1759 3634 1313 
Q 3634 634 3220 271 
Q 2806 -91 2034 -91 
Q 1263 -91 848 271 
Q 434 634 434 1313 
Q 434 1759 690 2068 
Q 947 2378 1403 2484 
z
M 1172 3481 
Q 1172 3119 1398 2916 
Q 1625 2713 2034 2713 
Q 2441 2713 2670 2916 
Q 2900 3119 2900 3481 
Q 2900 3844 2670 4047 
Q 2441 4250 2034 4250 
Q 1625 4250 1398 4047 
Q 1172 3844 1172 3481 
z
" transform="scale(0.015625)"/>
       </defs>
       <use xlink:href="#DejaVuSans-38"/>
       <use xlink:href="#DejaVuSans-30" x="63.623047"/>
      </g>
     </g>
    </g>
    <g id="xtick_6">
     <g id="line2d_6">
      <g>
       <use xlink:href="#mb9a58f31a9" x="401.766612" y="307.584" style="stroke: #000000; stroke-width: 0.8"/>
      </g>
     </g>
     <g id="text_6">
      <!-- 100 -->
      <g transform="translate(392.222862 322.182437) scale(0.1 -0.1)">
       <defs>
        <path id="DejaVuSans-31" d="M 794 531 
L 1825 531 
L 1825 4091 
L 703 3866 
L 703 4441 
L 1819 4666 
L 2450 4666 
L 2450 531 
L 3481 531 
L 3481 0 
L 794 0 
L 794 531 
z
" transform="scale(0.015625)"/>
       </defs>
       <use xlink:href="#DejaVuSans-31"/>
       <use xlink:href="#DejaVuSans-30" x="63.623047"/>
       <use xlink:href="#DejaVuSans-30" x="127.246094"/>
      </g>
     </g>
    </g>
   </g>
   <g id="matplotlib.axis_2">
    <g id="ytick_1">
     <g id="line2d_7">
      <defs>
       <path id="m297aaaa757" d="M 0 0 
L -3.5 0 
" style="stroke: #000000; stroke-width: 0.8"/>
      </defs>
      <g>
       <use xlink:href="#m297aaaa757" x="57.6" y="288.485886" style="stroke: #000000; stroke-width: 0.8"/>
      </g>
     </g>
     <g id="text_7">
      <!-- −3 -->
      <g transform="translate(35.857813 292.285105) scale(0.1 -0.1)">
       <defs>
        <path id="DejaVuSans-2212" d="M 678 2272 
L 4684 2272 
L 4684 1741 
L 678 1741 
L 678 2272 
z
" transform="scale(0.015625)"/>
        <path id="DejaVuSans-33" d="M 2597 2516 
Q 3050 2419 3304 2112 
Q 3559 1806 3559 1356 
Q 3559 666 3084 287 
Q 2609 -91 1734 -91 
Q 1441 -91 1130 -33 
Q 819 25 488 141 
L 488 750 
Q 750 597 1062 519 
Q 1375 441 1716 441 
Q 2309 441 2620 675 
Q 2931 909 2931 1356 
Q 2931 1769 2642 2001 
Q 2353 2234 1838 2234 
L 1294 2234 
L 1294 2753 
L 1863 2753 
Q 2328 2753 2575 2939 
Q 2822 3125 2822 3475 
Q 2822 3834 2567 4026 
Q 2313 4219 1838 4219 
Q 1578 4219 1281 4162 
Q 984 4106 628 3988 
L 628 4550 
Q 988 4650 1302 4700 
Q 1616 4750 1894 4750 
Q 2613 4750 3031 4423 
Q 3450 4097 3450 3541 
Q 3450 3153 3228 2886 
Q 3006 2619 2597 2516 
z
" transform="scale(0.015625)"/>
       </defs>
       <use xlink:href="#DejaVuSans-2212"/>
       <use xlink:href="#DejaVuSans-33" x="83.789062"/>
      </g>
     </g>
    </g>
    <g id="ytick_2">
     <g id="line2d_8">
      <g>
       <use xlink:href="#m297aaaa757" x="57.6" y="257.216978" style="stroke: #000000; stroke-width: 0.8"/>
      </g>
     </g>
     <g id="text_8">
      <!-- −2 -->
      <g transform="translate(35.857813 261.016197) scale(0.1 -0.1)">
       <use xlink:href="#DejaVuSans-2212"/>
       <use xlink:href="#DejaVuSans-32" x="83.789062"/>
      </g>
     </g>
    </g>
    <g id="ytick_3">
     <g id="line2d_9">
      <g>
       <use xlink:href="#m297aaaa757" x="57.6" y="225.948071" style="stroke: #000000; stroke-width: 0.8"/>
      </g>
     </g>
     <g id="text_9">
      <!-- −1 -->
      <g transform="translate(35.857813 229.74729) scale(0.1 -0.1)">
       <use xlink:href="#DejaVuSans-2212"/>
       <use xlink:href="#DejaVuSans-31" x="83.789062"/>
      </g>
     </g>
    </g>
    <g id="ytick_4">
     <g id="line2d_10">
      <g>
       <use xlink:href="#m297aaaa757" x="57.6" y="194.679163" style="stroke: #000000; stroke-width: 0.8"/>
      </g>
     </g>
     <g id="text_10">
      <!-- 0 -->
      <g transform="translate(44.2375 198.478382) scale(0.1 -0.1)">
       <use xlink:href="#DejaVuSans-30"/>
      </g>
     </g>
    </g>
    <g id="ytick_5">
     <g id="line2d_11">
      <g>
       <use xlink:href="#m297aaaa757" x="57.6" y="163.410255" style="stroke: #000000; stroke-width: 0.8"/>
      </g>
     </g>
     <g id="text_11">
      <!-- 1 -->
      <g transform="translate(44.2375 167.209474) scale(0.1 -0.1)">
       <use xlink:href="#DejaVuSans-31"/>
      </g>
     </g>
    </g>
    <g id="ytick_6">
     <g id="line2d_12">
      <g>
       <use xlink:href="#m297aaaa757" x="57.6" y="132.141348" style="stroke: #000000; stroke-width: 0.8"/>
      </g>
     </g>
     <g id="text_12">
      <!-- 2 -->
      <g transform="translate(44.2375 135.940566) scale(0.1 -0.1)">
       <use xlink:href="#DejaVuSans-32"/>
      </g>
     </g>
    </g>
    <g id="ytick_7">
     <g id="line2d_13">
      <g>
       <use xlink:href="#m297aaaa757" x="57.6" y="100.87244" style="stroke: #000000; stroke-width: 0.8"/>
      </g>
     </g>
     <g id="text_13">
      <!-- 3 -->
      <g transform="translate(44.2375 104.671659) scale(0.1 -0.1)">
       <use xlink:href="#DejaVuSans-33"/>
      </g>
     </g>
    </g>
    <g id="ytick_8">
     <g id="line2d_14">
      <g>
       <use xlink:href="#m297aaaa757" x="57.6" y="69.603532" style="stroke: #000000; stroke-width: 0.8"/>
      </g>
     </g>
     <g id="text_14">
      <!-- 4 -->
      <g transform="translate(44.2375 73.402751) scale(0.1 -0.1)">
       <use xlink:href="#DejaVuSans-34"/>
      </g>
     </g>
    </g>
   </g>
   <g id="line2d_15">
    <path d="M 73.832727 193.499586 
L 77.112066 190.666726 
L 80.391405 187.585294 
L 83.670744 184.340951 
L 86.950083 180.718749 
L 90.229421 177.479855 
L 93.50876 173.810478 
L 96.788099 169.397659 
L 100.067438 165.001419 
L 103.346777 160.434576 
L 106.626116 155.930921 
L 109.905455 151.777544 
L 113.184793 148.627247 
L 116.464132 145.750069 
L 119.743471 143.070208 
L 123.02281 141.408225 
L 126.302149 139.972477 
L 129.581488 138.835632 
L 132.860826 138.624362 
L 136.140165 139.02735 
L 139.419504 139.310307 
L 142.698843 140.011165 
L 145.978182 141.252046 
L 149.257521 143.390166 
L 152.53686 145.877293 
L 155.816198 147.94051 
L 159.095537 150.075347 
L 162.374876 151.67751 
L 165.654215 153.008103 
L 168.933554 154.651267 
L 172.212893 156.413939 
L 175.492231 157.847084 
L 178.77157 158.700889 
L 182.050909 159.353866 
L 185.330248 160.625894 
L 188.609587 161.72218 
L 191.888926 162.056274 
L 195.168264 162.931493 
L 198.447603 164.519788 
L 201.726942 166.710699 
L 205.006281 169.120931 
L 208.28562 171.795829 
L 211.564959 174.732556 
L 214.844298 177.567525 
L 218.123636 180.6356 
L 221.402975 183.597392 
L 224.682314 186.076711 
L 227.961653 188.771183 
L 231.240992 191.294499 
L 234.520331 193.24807 
L 237.799669 195.678516 
L 241.079008 198.200932 
L 244.358347 201.367627 
L 247.637686 204.597628 
L 250.917025 206.881616 
L 254.196364 209.346679 
L 257.475702 211.08434 
L 260.755041 211.701012 
L 264.03438 212.197617 
L 267.313719 212.61794 
L 270.593058 213.548112 
L 273.872397 214.091477 
L 277.151736 213.512919 
L 280.431074 212.90588 
L 283.710413 212.107057 
L 286.989752 211.626465 
L 290.269091 211.721301 
L 293.54843 211.569283 
L 296.827769 211.301885 
L 300.107107 210.921621 
L 303.386446 210.369701 
L 306.665785 209.233973 
L 309.945124 207.701673 
L 313.224463 206.61519 
L 316.503802 206.040032 
L 319.78314 206.021911 
L 323.062479 205.462805 
L 326.341818 203.796173 
L 329.621157 201.701967 
L 332.900496 199.561668 
L 336.179835 196.872429 
L 339.459174 193.703069 
L 342.738512 190.675531 
L 346.017851 187.992963 
L 349.29719 185.595804 
L 352.576529 183.742059 
L 355.855868 182.208409 
L 359.135207 179.979514 
L 362.414545 177.545007 
L 365.693884 174.78778 
L 368.973223 171.497061 
L 372.252562 168.106471 
L 375.531901 163.87941 
L 378.81124 159.596082 
L 382.090579 155.800448 
L 385.369917 151.963317 
L 388.649256 148.449033 
L 391.928595 145.493138 
L 395.207934 143.089471 
L 398.487273 140.066415 
" clip-path="url(#paefe8389be)" style="fill: none; stroke: #0000ff; stroke-width: 1.5; stroke-linecap: square"/>
   </g>
   <g id="line2d_16">
    <defs>
     <path id="m1016cedfc7" d="M 0 3 
C 0.795609 3 1.55874 2.683901 2.12132 2.12132 
C 2.683901 1.55874 3 0.795609 3 0 
C 3 -0.795609 2.683901 -1.55874 2.12132 -2.12132 
C 1.55874 -2.683901 0.795609 -3 0 -3 
C -0.795609 -3 -1.55874 -2.683901 -2.12132 -2.12132 
C -2.683901 -1.55874 -3 -0.795609 -3 0 
C -3 0.795609 -2.683901 1.55874 -2.12132 2.12132 
C -1.55874 2.683901 -0.795609 3 0 3 
z
" style="stroke: #1f77b4"/>
    </defs>
    <g clip-path="url(#paefe8389be)">
     <use xlink:href="#m1016cedfc7" x="73.832727" y="176.113085" style="fill: #1f77b4; stroke: #1f77b4"/>
     <use xlink:href="#m1016cedfc7" x="77.112066" y="185.689976" style="fill: #1f77b4; stroke: #1f77b4"/>
     <use xlink:href="#m1016cedfc7" x="80.391405" y="129.44432" style="fill: #1f77b4; stroke: #1f77b4"/>
     <use xlink:href="#m1016cedfc7" x="83.670744" y="188.687531" style="fill: #1f77b4; stroke: #1f77b4"/>
     <use xlink:href="#m1016cedfc7" x="86.950083" y="183.754671" style="fill: #1f77b4; stroke: #1f77b4"/>
     <use xlink:href="#m1016cedfc7" x="90.229421" y="295.488" style="fill: #1f77b4; stroke: #1f77b4"/>
     <use xlink:href="#m1016cedfc7" x="93.50876" y="176.172505" style="fill: #1f77b4; stroke: #1f77b4"/>
     <use xlink:href="#m1016cedfc7" x="96.788099" y="229.121839" style="fill: #1f77b4; stroke: #1f77b4"/>
     <use xlink:href="#m1016cedfc7" x="100.067438" y="95.329016" style="fill: #1f77b4; stroke: #1f77b4"/>
     <use xlink:href="#m1016cedfc7" x="103.346777" y="166.618384" style="fill: #1f77b4; stroke: #1f77b4"/>
     <use xlink:href="#m1016cedfc7" x="106.626116" y="158.600077" style="fill: #1f77b4; stroke: #1f77b4"/>
     <use xlink:href="#m1016cedfc7" x="109.905455" y="172.491053" style="fill: #1f77b4; stroke: #1f77b4"/>
     <use xlink:href="#m1016cedfc7" x="113.184793" y="111.291247" style="fill: #1f77b4; stroke: #1f77b4"/>
     <use xlink:href="#m1016cedfc7" x="116.464132" y="165.689845" style="fill: #1f77b4; stroke: #1f77b4"/>
     <use xlink:href="#m1016cedfc7" x="119.743471" y="185.876908" style="fill: #1f77b4; stroke: #1f77b4"/>
     <use xlink:href="#m1016cedfc7" x="123.02281" y="133.644324" style="fill: #1f77b4; stroke: #1f77b4"/>
     <use xlink:href="#m1016cedfc7" x="126.302149" y="100.616833" style="fill: #1f77b4; stroke: #1f77b4"/>
     <use xlink:href="#m1016cedfc7" x="129.581488" y="144.411729" style="fill: #1f77b4; stroke: #1f77b4"/>
     <use xlink:href="#m1016cedfc7" x="132.860826" y="141.937822" style="fill: #1f77b4; stroke: #1f77b4"/>
     <use xlink:href="#m1016cedfc7" x="136.140165" y="84.952105" style="fill: #1f77b4; stroke: #1f77b4"/>
     <use xlink:href="#m1016cedfc7" x="139.419504" y="119.519757" style="fill: #1f77b4; stroke: #1f77b4"/>
     <use xlink:href="#m1016cedfc7" x="142.698843" y="53.568" style="fill: #1f77b4; stroke: #1f77b4"/>
     <use xlink:href="#m1016cedfc7" x="145.978182" y="228.299224" style="fill: #1f77b4; stroke: #1f77b4"/>
     <use xlink:href="#m1016cedfc7" x="149.257521" y="164.796" style="fill: #1f77b4; stroke: #1f77b4"/>
     <use xlink:href="#m1016cedfc7" x="152.53686" y="205.998209" style="fill: #1f77b4; stroke: #1f77b4"/>
     <use xlink:href="#m1016cedfc7" x="155.816198" y="145.972973" style="fill: #1f77b4; stroke: #1f77b4"/>
     <use xlink:href="#m1016cedfc7" x="159.095537" y="184.943124" style="fill: #1f77b4; stroke: #1f77b4"/>
     <use xlink:href="#m1016cedfc7" x="162.374876" y="160.791993" style="fill: #1f77b4; stroke: #1f77b4"/>
     <use xlink:href="#m1016cedfc7" x="165.654215" y="100.970641" style="fill: #1f77b4; stroke: #1f77b4"/>
     <use xlink:href="#m1016cedfc7" x="168.933554" y="191.557289" style="fill: #1f77b4; stroke: #1f77b4"/>
     <use xlink:href="#m1016cedfc7" x="172.212893" y="218.60201" style="fill: #1f77b4; stroke: #1f77b4"/>
     <use xlink:href="#m1016cedfc7" x="175.492231" y="117.851311" style="fill: #1f77b4; stroke: #1f77b4"/>
     <use xlink:href="#m1016cedfc7" x="178.77157" y="69.934199" style="fill: #1f77b4; stroke: #1f77b4"/>
     <use xlink:href="#m1016cedfc7" x="182.050909" y="173.35903" style="fill: #1f77b4; stroke: #1f77b4"/>
     <use xlink:href="#m1016cedfc7" x="185.330248" y="87.876288" style="fill: #1f77b4; stroke: #1f77b4"/>
     <use xlink:href="#m1016cedfc7" x="188.609587" y="150.247243" style="fill: #1f77b4; stroke: #1f77b4"/>
     <use xlink:href="#m1016cedfc7" x="191.888926" y="182.45929" style="fill: #1f77b4; stroke: #1f77b4"/>
     <use xlink:href="#m1016cedfc7" x="195.168264" y="149.250217" style="fill: #1f77b4; stroke: #1f77b4"/>
     <use xlink:href="#m1016cedfc7" x="198.447603" y="112.433453" style="fill: #1f77b4; stroke: #1f77b4"/>
     <use xlink:href="#m1016cedfc7" x="201.726942" y="107.184391" style="fill: #1f77b4; stroke: #1f77b4"/>
     <use xlink:href="#m1016cedfc7" x="205.006281" y="149.994813" style="fill: #1f77b4; stroke: #1f77b4"/>
     <use xlink:href="#m1016cedfc7" x="208.28562" y="168.389772" style="fill: #1f77b4; stroke: #1f77b4"/>
     <use xlink:href="#m1016cedfc7" x="211.564959" y="230.024403" style="fill: #1f77b4; stroke: #1f77b4"/>
     <use xlink:href="#m1016cedfc7" x="214.844298" y="183.528342" style="fill: #1f77b4; stroke: #1f77b4"/>
     <use xlink:href="#m1016cedfc7" x="218.123636" y="152.994614" style="fill: #1f77b4; stroke: #1f77b4"/>
     <use xlink:href="#m1016cedfc7" x="221.402975" y="188.895301" style="fill: #1f77b4; stroke: #1f77b4"/>
     <use xlink:href="#m1016cedfc7" x="224.682314" y="188.033062" style="fill: #1f77b4; stroke: #1f77b4"/>
     <use xlink:href="#m1016cedfc7" x="227.961653" y="234.329407" style="fill: #1f77b4; stroke: #1f77b4"/>
     <use xlink:href="#m1016cedfc7" x="231.240992" y="216.593702" style="fill: #1f77b4; stroke: #1f77b4"/>
     <use xlink:href="#m1016cedfc7" x="234.520331" y="217.012091" style="fill: #1f77b4; stroke: #1f77b4"/>
     <use xlink:href="#m1016cedfc7" x="237.799669" y="161.039278" style="fill: #1f77b4; stroke: #1f77b4"/>
     <use xlink:href="#m1016cedfc7" x="241.079008" y="98.677001" style="fill: #1f77b4; stroke: #1f77b4"/>
     <use xlink:href="#m1016cedfc7" x="244.358347" y="235.311847" style="fill: #1f77b4; stroke: #1f77b4"/>
     <use xlink:href="#m1016cedfc7" x="247.637686" y="205.455282" style="fill: #1f77b4; stroke: #1f77b4"/>
     <use xlink:href="#m1016cedfc7" x="250.917025" y="218.205717" style="fill: #1f77b4; stroke: #1f77b4"/>
     <use xlink:href="#m1016cedfc7" x="254.196364" y="164.951536" style="fill: #1f77b4; stroke: #1f77b4"/>
     <use xlink:href="#m1016cedfc7" x="257.475702" y="235.035218" style="fill: #1f77b4; stroke: #1f77b4"/>
     <use xlink:href="#m1016cedfc7" x="260.755041" y="198.765579" style="fill: #1f77b4; stroke: #1f77b4"/>
     <use xlink:href="#m1016cedfc7" x="264.03438" y="198.568309" style="fill: #1f77b4; stroke: #1f77b4"/>
     <use xlink:href="#m1016cedfc7" x="267.313719" y="216.569101" style="fill: #1f77b4; stroke: #1f77b4"/>
     <use xlink:href="#m1016cedfc7" x="270.593058" y="209.137935" style="fill: #1f77b4; stroke: #1f77b4"/>
     <use xlink:href="#m1016cedfc7" x="273.872397" y="178.58909" style="fill: #1f77b4; stroke: #1f77b4"/>
     <use xlink:href="#m1016cedfc7" x="277.151736" y="177.911454" style="fill: #1f77b4; stroke: #1f77b4"/>
     <use xlink:href="#m1016cedfc7" x="280.431074" y="186.759939" style="fill: #1f77b4; stroke: #1f77b4"/>
     <use xlink:href="#m1016cedfc7" x="283.710413" y="193.503994" style="fill: #1f77b4; stroke: #1f77b4"/>
     <use xlink:href="#m1016cedfc7" x="286.989752" y="160.215955" style="fill: #1f77b4; stroke: #1f77b4"/>
     <use xlink:href="#m1016cedfc7" x="290.269091" y="237.537458" style="fill: #1f77b4; stroke: #1f77b4"/>
     <use xlink:href="#m1016cedfc7" x="293.54843" y="149.707211" style="fill: #1f77b4; stroke: #1f77b4"/>
     <use xlink:href="#m1016cedfc7" x="296.827769" y="208.667534" style="fill: #1f77b4; stroke: #1f77b4"/>
     <use xlink:href="#m1016cedfc7" x="300.107107" y="164.945857" style="fill: #1f77b4; stroke: #1f77b4"/>
     <use xlink:href="#m1016cedfc7" x="303.386446" y="194.898882" style="fill: #1f77b4; stroke: #1f77b4"/>
     <use xlink:href="#m1016cedfc7" x="306.665785" y="86.391997" style="fill: #1f77b4; stroke: #1f77b4"/>
     <use xlink:href="#m1016cedfc7" x="309.945124" y="145.523574" style="fill: #1f77b4; stroke: #1f77b4"/>
     <use xlink:href="#m1016cedfc7" x="313.224463" y="227.85053" style="fill: #1f77b4; stroke: #1f77b4"/>
     <use xlink:href="#m1016cedfc7" x="316.503802" y="271.121073" style="fill: #1f77b4; stroke: #1f77b4"/>
     <use xlink:href="#m1016cedfc7" x="319.78314" y="211.615571" style="fill: #1f77b4; stroke: #1f77b4"/>
     <use xlink:href="#m1016cedfc7" x="323.062479" y="174.366459" style="fill: #1f77b4; stroke: #1f77b4"/>
     <use xlink:href="#m1016cedfc7" x="326.341818" y="264.1252" style="fill: #1f77b4; stroke: #1f77b4"/>
     <use xlink:href="#m1016cedfc7" x="329.621157" y="213.762619" style="fill: #1f77b4; stroke: #1f77b4"/>
     <use xlink:href="#m1016cedfc7" x="332.900496" y="168.076195" style="fill: #1f77b4; stroke: #1f77b4"/>
     <use xlink:href="#m1016cedfc7" x="336.179835" y="142.752751" style="fill: #1f77b4; stroke: #1f77b4"/>
     <use xlink:href="#m1016cedfc7" x="339.459174" y="172.610301" style="fill: #1f77b4; stroke: #1f77b4"/>
     <use xlink:href="#m1016cedfc7" x="342.738512" y="207.064885" style="fill: #1f77b4; stroke: #1f77b4"/>
     <use xlink:href="#m1016cedfc7" x="346.017851" y="113.878311" style="fill: #1f77b4; stroke: #1f77b4"/>
     <use xlink:href="#m1016cedfc7" x="349.29719" y="162.117026" style="fill: #1f77b4; stroke: #1f77b4"/>
     <use xlink:href="#m1016cedfc7" x="352.576529" y="222.066627" style="fill: #1f77b4; stroke: #1f77b4"/>
     <use xlink:href="#m1016cedfc7" x="355.855868" y="216.811404" style="fill: #1f77b4; stroke: #1f77b4"/>
     <use xlink:href="#m1016cedfc7" x="359.135207" y="199.24155" style="fill: #1f77b4; stroke: #1f77b4"/>
     <use xlink:href="#m1016cedfc7" x="362.414545" y="175.183572" style="fill: #1f77b4; stroke: #1f77b4"/>
     <use xlink:href="#m1016cedfc7" x="365.693884" y="162.514165" style="fill: #1f77b4; stroke: #1f77b4"/>
     <use xlink:href="#m1016cedfc7" x="368.973223" y="153.12932" style="fill: #1f77b4; stroke: #1f77b4"/>
     <use xlink:href="#m1016cedfc7" x="372.252562" y="172.247561" style="fill: #1f77b4; stroke: #1f77b4"/>
     <use xlink:href="#m1016cedfc7" x="375.531901" y="150.033898" style="fill: #1f77b4; stroke: #1f77b4"/>
     <use xlink:href="#m1016cedfc7" x="378.81124" y="158.624967" style="fill: #1f77b4; stroke: #1f77b4"/>
     <use xlink:href="#m1016cedfc7" x="382.090579" y="147.810893" style="fill: #1f77b4; stroke: #1f77b4"/>
     <use xlink:href="#m1016cedfc7" x="385.369917" y="189.098945" style="fill: #1f77b4; stroke: #1f77b4"/>
     <use xlink:href="#m1016cedfc7" x="388.649256" y="173.124923" style="fill: #1f77b4; stroke: #1f77b4"/>
     <use xlink:href="#m1016cedfc7" x="391.928595" y="101.394755" style="fill: #1f77b4; stroke: #1f77b4"/>
     <use xlink:href="#m1016cedfc7" x="395.207934" y="77.847192" style="fill: #1f77b4; stroke: #1f77b4"/>
     <use xlink:href="#m1016cedfc7" x="398.487273" y="78.731762" style="fill: #1f77b4; stroke: #1f77b4"/>
    </g>
   </g>
   <g id="line2d_17">
    <path d="M 73.832727 177.715591 
L 77.112066 177.396185 
L 80.391405 158.063667 
L 83.670744 158.333448 
L 86.950083 158.318373 
L 90.229421 181.096475 
L 93.50876 181.09357 
L 96.788099 187.701333 
L 100.067438 174.733249 
L 103.346777 170.120657 
L 106.626116 164.039013 
L 109.905455 163.831728 
L 113.184793 159.256357 
L 116.464132 160.595919 
L 119.743471 159.951029 
L 123.02281 154.968717 
L 126.302149 145.32653 
L 129.581488 144.735318 
L 132.860826 142.370227 
L 136.140165 137.166755 
L 139.419504 134.897496 
L 142.698843 125.614835 
L 145.978182 136.137866 
L 149.257521 142.869974 
L 152.53686 145.890767 
L 155.816198 148.394314 
L 159.095537 154.426542 
L 162.374876 149.670912 
L 165.654215 142.466866 
L 168.933554 153.27716 
L 172.212893 158.831528 
L 175.492231 159.003729 
L 178.77157 151.334392 
L 182.050909 156.582463 
L 185.330248 149.667413 
L 188.609587 149.907807 
L 191.888926 149.167928 
L 195.168264 148.433353 
L 198.447603 146.788368 
L 201.726942 143.10896 
L 205.006281 141.008557 
L 208.28562 143.948161 
L 211.564959 156.194821 
L 214.844298 160.020925 
L 218.123636 159.985498 
L 221.402975 167.484777 
L 224.682314 171.298583 
L 227.961653 179.881661 
L 231.240992 181.898276 
L 234.520331 187.125676 
L 237.799669 186.787366 
L 241.079008 178.508556 
L 244.358347 189.574581 
L 247.637686 193.661512 
L 250.917025 202.336619 
L 254.196364 199.917047 
L 257.475702 204.899535 
L 260.755041 204.476144 
L 264.03438 204.112537 
L 267.313719 206.096418 
L 270.593058 207.994473 
L 273.872397 208.955671 
L 277.151736 210.05114 
L 280.431074 206.989078 
L 283.710413 204.02813 
L 286.989752 200.296475 
L 290.269091 207.31526 
L 293.54843 201.033279 
L 296.827769 200.722392 
L 300.107107 201.194452 
L 303.386446 204.772904 
L 306.665785 200.316293 
L 309.945124 197.459518 
L 313.224463 197.030026 
L 316.503802 204.320186 
L 319.78314 205.75303 
L 323.062479 206.196304 
L 326.341818 207.497207 
L 329.621157 207.413716 
L 332.900496 205.602861 
L 336.179835 196.892005 
L 339.459174 192.51954 
L 342.738512 189.098073 
L 346.017851 180.801699 
L 349.29719 178.815086 
L 352.576529 181.151036 
L 355.855868 180.560397 
L 359.135207 175.073853 
L 362.414545 174.543724 
L 365.693884 169.473795 
L 368.973223 164.567607 
L 372.252562 159.915141 
L 375.531901 154.716563 
L 378.81124 151.165412 
L 382.090579 144.906262 
L 385.369917 142.941337 
L 388.649256 143.339083 
L 391.928595 133.155297 
L 395.207934 123.929392 
L 398.487273 120.010332 
" clip-path="url(#paefe8389be)" style="fill: none; stroke: #ff0000; stroke-width: 1.5; stroke-linecap: square"/>
   </g>
   <g id="patch_3">
    <path d="M 57.6 307.584 
L 57.6 41.472 
" style="fill: none; stroke: #000000; stroke-width: 0.8; stroke-linejoin: miter; stroke-linecap: square"/>
   </g>
   <g id="patch_4">
    <path d="M 414.72 307.584 
L 414.72 41.472 
" style="fill: none; stroke: #000000; stroke-width: 0.8; stroke-linejoin: miter; stroke-linecap: square"/>
   </g>
   <g id="patch_5">
    <path d="M 57.6 307.584 
L 414.72 307.584 
" style="fill: none; stroke: #000000; stroke-width: 0.8; stroke-linejoin: miter; stroke-linecap: square"/>
   </g>
   <g id="patch_6">
    <path d="M 57.6 41.472 
L 414.72 41.472 
" style="fill: none; stroke: #000000; stroke-width: 0.8; stroke-linejoin: miter; stroke-linecap: square"/>
   </g>
   <g id="legend_1">
    <g id="patch_7">
     <path d="M 190.588906 302.584 
L 281.731094 302.584 
Q 283.731094 302.584 283.731094 300.584 
L 283.731094 257.549625 
Q 283.731094 255.549625 281.731094 255.549625 
L 190.588906 255.549625 
Q 188.588906 255.549625 188.588906 257.549625 
L 188.588906 300.584 
Q 188.588906 302.584 190.588906 302.584 
z
" style="fill: #ffffff; opacity: 0.8; stroke: #cccccc; stroke-linejoin: miter"/>
    </g>
    <g id="line2d_18">
     <path d="M 192.588906 263.648062 
L 202.588906 263.648062 
L 212.588906 263.648062 
" style="fill: none; stroke: #0000ff; stroke-width: 1.5; stroke-linecap: square"/>
    </g>
    <g id="text_15">
     <!-- state -->
     <g transform="translate(220.588906 267.148062) scale(0.1 -0.1)">
      <defs>
       <path id="DejaVuSans-73" d="M 2834 3397 
L 2834 2853 
Q 2591 2978 2328 3040 
Q 2066 3103 1784 3103 
Q 1356 3103 1142 2972 
Q 928 2841 928 2578 
Q 928 2378 1081 2264 
Q 1234 2150 1697 2047 
L 1894 2003 
Q 2506 1872 2764 1633 
Q 3022 1394 3022 966 
Q 3022 478 2636 193 
Q 2250 -91 1575 -91 
Q 1294 -91 989 -36 
Q 684 19 347 128 
L 347 722 
Q 666 556 975 473 
Q 1284 391 1588 391 
Q 1994 391 2212 530 
Q 2431 669 2431 922 
Q 2431 1156 2273 1281 
Q 2116 1406 1581 1522 
L 1381 1569 
Q 847 1681 609 1914 
Q 372 2147 372 2553 
Q 372 3047 722 3315 
Q 1072 3584 1716 3584 
Q 2034 3584 2315 3537 
Q 2597 3491 2834 3397 
z
" transform="scale(0.015625)"/>
       <path id="DejaVuSans-74" d="M 1172 4494 
L 1172 3500 
L 2356 3500 
L 2356 3053 
L 1172 3053 
L 1172 1153 
Q 1172 725 1289 603 
Q 1406 481 1766 481 
L 2356 481 
L 2356 0 
L 1766 0 
Q 1100 0 847 248 
Q 594 497 594 1153 
L 594 3053 
L 172 3053 
L 172 3500 
L 594 3500 
L 594 4494 
L 1172 4494 
z
" transform="scale(0.015625)"/>
       <path id="DejaVuSans-61" d="M 2194 1759 
Q 1497 1759 1228 1600 
Q 959 1441 959 1056 
Q 959 750 1161 570 
Q 1363 391 1709 391 
Q 2188 391 2477 730 
Q 2766 1069 2766 1631 
L 2766 1759 
L 2194 1759 
z
M 3341 1997 
L 3341 0 
L 2766 0 
L 2766 531 
Q 2569 213 2275 61 
Q 1981 -91 1556 -91 
Q 1019 -91 701 211 
Q 384 513 384 1019 
Q 384 1609 779 1909 
Q 1175 2209 1959 2209 
L 2766 2209 
L 2766 2266 
Q 2766 2663 2505 2880 
Q 2244 3097 1772 3097 
Q 1472 3097 1187 3025 
Q 903 2953 641 2809 
L 641 3341 
Q 956 3463 1253 3523 
Q 1550 3584 1831 3584 
Q 2591 3584 2966 3190 
Q 3341 2797 3341 1997 
z
" transform="scale(0.015625)"/>
       <path id="DejaVuSans-65" d="M 3597 1894 
L 3597 1613 
L 953 1613 
Q 991 1019 1311 708 
Q 1631 397 2203 397 
Q 2534 397 2845 478 
Q 3156 559 3463 722 
L 3463 178 
Q 3153 47 2828 -22 
Q 2503 -91 2169 -91 
Q 1331 -91 842 396 
Q 353 884 353 1716 
Q 353 2575 817 3079 
Q 1281 3584 2069 3584 
Q 2775 3584 3186 3129 
Q 3597 2675 3597 1894 
z
M 3022 2063 
Q 3016 2534 2758 2815 
Q 2500 3097 2075 3097 
Q 1594 3097 1305 2825 
Q 1016 2553 972 2059 
L 3022 2063 
z
" transform="scale(0.015625)"/>
      </defs>
      <use xlink:href="#DejaVuSans-73"/>
      <use xlink:href="#DejaVuSans-74" x="52.099609"/>
      <use xlink:href="#DejaVuSans-61" x="91.308594"/>
      <use xlink:href="#DejaVuSans-74" x="152.587891"/>
      <use xlink:href="#DejaVuSans-65" x="191.796875"/>
     </g>
    </g>
    <g id="line2d_19">
     <g>
      <use xlink:href="#m1016cedfc7" x="202.588906" y="278.326188" style="fill: #1f77b4; stroke: #1f77b4"/>
     </g>
    </g>
    <g id="text_16">
     <!-- observation -->
     <g transform="translate(220.588906 281.826188) scale(0.1 -0.1)">
      <defs>
       <path id="DejaVuSans-6f" d="M 1959 3097 
Q 1497 3097 1228 2736 
Q 959 2375 959 1747 
Q 959 1119 1226 758 
Q 1494 397 1959 397 
Q 2419 397 2687 759 
Q 2956 1122 2956 1747 
Q 2956 2369 2687 2733 
Q 2419 3097 1959 3097 
z
M 1959 3584 
Q 2709 3584 3137 3096 
Q 3566 2609 3566 1747 
Q 3566 888 3137 398 
Q 2709 -91 1959 -91 
Q 1206 -91 779 398 
Q 353 888 353 1747 
Q 353 2609 779 3096 
Q 1206 3584 1959 3584 
z
" transform="scale(0.015625)"/>
       <path id="DejaVuSans-62" d="M 3116 1747 
Q 3116 2381 2855 2742 
Q 2594 3103 2138 3103 
Q 1681 3103 1420 2742 
Q 1159 2381 1159 1747 
Q 1159 1113 1420 752 
Q 1681 391 2138 391 
Q 2594 391 2855 752 
Q 3116 1113 3116 1747 
z
M 1159 2969 
Q 1341 3281 1617 3432 
Q 1894 3584 2278 3584 
Q 2916 3584 3314 3078 
Q 3713 2572 3713 1747 
Q 3713 922 3314 415 
Q 2916 -91 2278 -91 
Q 1894 -91 1617 61 
Q 1341 213 1159 525 
L 1159 0 
L 581 0 
L 581 4863 
L 1159 4863 
L 1159 2969 
z
" transform="scale(0.015625)"/>
       <path id="DejaVuSans-72" d="M 2631 2963 
Q 2534 3019 2420 3045 
Q 2306 3072 2169 3072 
Q 1681 3072 1420 2755 
Q 1159 2438 1159 1844 
L 1159 0 
L 581 0 
L 581 3500 
L 1159 3500 
L 1159 2956 
Q 1341 3275 1631 3429 
Q 1922 3584 2338 3584 
Q 2397 3584 2469 3576 
Q 2541 3569 2628 3553 
L 2631 2963 
z
" transform="scale(0.015625)"/>
       <path id="DejaVuSans-76" d="M 191 3500 
L 800 3500 
L 1894 563 
L 2988 3500 
L 3597 3500 
L 2284 0 
L 1503 0 
L 191 3500 
z
" transform="scale(0.015625)"/>
       <path id="DejaVuSans-69" d="M 603 3500 
L 1178 3500 
L 1178 0 
L 603 0 
L 603 3500 
z
M 603 4863 
L 1178 4863 
L 1178 4134 
L 603 4134 
L 603 4863 
z
" transform="scale(0.015625)"/>
       <path id="DejaVuSans-6e" d="M 3513 2113 
L 3513 0 
L 2938 0 
L 2938 2094 
Q 2938 2591 2744 2837 
Q 2550 3084 2163 3084 
Q 1697 3084 1428 2787 
Q 1159 2491 1159 1978 
L 1159 0 
L 581 0 
L 581 3500 
L 1159 3500 
L 1159 2956 
Q 1366 3272 1645 3428 
Q 1925 3584 2291 3584 
Q 2894 3584 3203 3211 
Q 3513 2838 3513 2113 
z
" transform="scale(0.015625)"/>
      </defs>
      <use xlink:href="#DejaVuSans-6f"/>
      <use xlink:href="#DejaVuSans-62" x="61.181641"/>
      <use xlink:href="#DejaVuSans-73" x="124.658203"/>
      <use xlink:href="#DejaVuSans-65" x="176.757812"/>
      <use xlink:href="#DejaVuSans-72" x="238.28125"/>
      <use xlink:href="#DejaVuSans-76" x="279.394531"/>
      <use xlink:href="#DejaVuSans-61" x="338.574219"/>
      <use xlink:href="#DejaVuSans-74" x="399.853516"/>
      <use xlink:href="#DejaVuSans-69" x="439.0625"/>
      <use xlink:href="#DejaVuSans-6f" x="466.845703"/>
      <use xlink:href="#DejaVuSans-6e" x="528.027344"/>
     </g>
    </g>
    <g id="line2d_20">
     <path d="M 192.588906 293.004312 
L 202.588906 293.004312 
L 212.588906 293.004312 
" style="fill: none; stroke: #ff0000; stroke-width: 1.5; stroke-linecap: square"/>
    </g>
    <g id="text_17">
     <!-- estimate -->
     <g transform="translate(220.588906 296.504312) scale(0.1 -0.1)">
      <defs>
       <path id="DejaVuSans-6d" d="M 3328 2828 
Q 3544 3216 3844 3400 
Q 4144 3584 4550 3584 
Q 5097 3584 5394 3201 
Q 5691 2819 5691 2113 
L 5691 0 
L 5113 0 
L 5113 2094 
Q 5113 2597 4934 2840 
Q 4756 3084 4391 3084 
Q 3944 3084 3684 2787 
Q 3425 2491 3425 1978 
L 3425 0 
L 2847 0 
L 2847 2094 
Q 2847 2600 2669 2842 
Q 2491 3084 2119 3084 
Q 1678 3084 1418 2786 
Q 1159 2488 1159 1978 
L 1159 0 
L 581 0 
L 581 3500 
L 1159 3500 
L 1159 2956 
Q 1356 3278 1631 3431 
Q 1906 3584 2284 3584 
Q 2666 3584 2933 3390 
Q 3200 3197 3328 2828 
z
" transform="scale(0.015625)"/>
      </defs>
      <use xlink:href="#DejaVuSans-65"/>
      <use xlink:href="#DejaVuSans-73" x="61.523438"/>
      <use xlink:href="#DejaVuSans-74" x="113.623047"/>
      <use xlink:href="#DejaVuSans-69" x="152.832031"/>
      <use xlink:href="#DejaVuSans-6d" x="180.615234"/>
      <use xlink:href="#DejaVuSans-61" x="278.027344"/>
      <use xlink:href="#DejaVuSans-74" x="339.306641"/>
      <use xlink:href="#DejaVuSans-65" x="378.515625"/>
     </g>
    </g>
   </g>
  </g>
 </g>
 <defs>
  <clipPath id="paefe8389be">
   <rect x="57.6" y="41.472" width="357.12" height="266.112"/>
  </clipPath>
 </defs>
</svg>
