<?xml version="1.0" encoding="UTF-8" standalone="no"?>
<!DOCTYPE svg PUBLIC "-//W3C//DTD SVG 1.1//EN"
 "http://www.w3.org/Graphics/SVG/1.1/DTD/svg11.dtd">
<!-- Generated by graphviz version 12.2.1 (20241206.2353)
 -->
<!-- Title: root Pages: 1 -->
<svg width="189pt" height="332pt"
 viewBox="0.00 0.00 189.00 332.00" xmlns="http://www.w3.org/2000/svg" xmlns:xlink="http://www.w3.org/1999/xlink">
<g id="graph0" class="graph" transform="scale(1 1) rotate(0) translate(4 328)">
<title>root</title>
<polygon fill="white" stroke="none" points="-4,4 -4,-328 185,-328 185,4 -4,4"/>
<!-- 0 -->
<g id="node1" class="node">
<title>0</title>
<ellipse fill="none" stroke="black" cx="82" cy="-306" rx="27" ry="18"/>
<text text-anchor="middle" x="82" y="-300.95" font-family="Times,serif" font-size="14.00">i0</text>
</g>
<!-- 2 -->
<g id="node2" class="node">
<title>2</title>
<ellipse fill="none" stroke="black" cx="86" cy="-234" rx="34.97" ry="18"/>
<text text-anchor="middle" x="86" y="-228.95" font-family="Times,serif" font-size="14.00">Minus</text>
</g>
<!-- 0&#45;&gt;2 -->
<g id="edge1" class="edge">
<title>0&#45;&gt;2</title>
<path fill="none" stroke="blue" d="M82.99,-287.7C83.41,-280.41 83.9,-271.73 84.37,-263.54"/>
<polygon fill="blue" stroke="blue" points="87.86,-263.8 84.94,-253.62 80.87,-263.4 87.86,-263.8"/>
</g>
<!-- 3 -->
<g id="node5" class="node">
<title>3</title>
<ellipse fill="none" stroke="black" cx="27" cy="-162" rx="27" ry="18"/>
<text text-anchor="middle" x="27" y="-156.95" font-family="Times,serif" font-size="14.00">U</text>
</g>
<!-- 2&#45;&gt;3 -->
<g id="edge4" class="edge">
<title>2&#45;&gt;3</title>
<path fill="none" stroke="black" d="M72.61,-217.12C65.01,-208.1 55.35,-196.64 46.88,-186.59"/>
<polygon fill="black" stroke="black" points="49.62,-184.41 40.5,-179.02 44.27,-188.92 49.62,-184.41"/>
</g>
<!-- 6 -->
<g id="node6" class="node">
<title>6</title>
<ellipse fill="none" stroke="black" cx="99" cy="-162" rx="27" ry="18"/>
<text text-anchor="middle" x="99" y="-156.95" font-family="Times,serif" font-size="14.00">o1</text>
</g>
<!-- 2&#45;&gt;6 -->
<g id="edge5" class="edge">
<title>2&#45;&gt;6</title>
<path fill="none" stroke="black" d="M89.21,-215.7C90.58,-208.32 92.22,-199.52 93.75,-191.25"/>
<polygon fill="black" stroke="black" points="97.16,-192.06 95.55,-181.59 90.28,-190.79 97.16,-192.06"/>
</g>
<!-- 1 -->
<g id="node3" class="node">
<title>1</title>
<ellipse fill="none" stroke="black" cx="154" cy="-306" rx="27" ry="18"/>
<text text-anchor="middle" x="154" y="-300.95" font-family="Times,serif" font-size="14.00">i1</text>
</g>
<!-- 1&#45;&gt;2 -->
<g id="edge2" class="edge">
<title>1&#45;&gt;2</title>
<path fill="none" stroke="red" d="M139.91,-290.5C130.95,-281.27 119.13,-269.11 108.85,-258.52"/>
<polygon fill="red" stroke="red" points="111.55,-256.28 102.07,-251.54 106.53,-261.15 111.55,-256.28"/>
</g>
<!-- 4 -->
<g id="node4" class="node">
<title>4</title>
<ellipse fill="none" stroke="black" cx="90" cy="-90" rx="34.97" ry="18"/>
<text text-anchor="middle" x="90" y="-84.95" font-family="Times,serif" font-size="14.00">Minus</text>
</g>
<!-- 1&#45;&gt;4 -->
<g id="edge3" class="edge">
<title>1&#45;&gt;4</title>
<path fill="none" stroke="red" d="M155.14,-287.71C156.47,-257.28 156.24,-192.77 135,-144 130.28,-133.16 122.58,-122.85 114.88,-114.26"/>
<polygon fill="red" stroke="red" points="117.45,-111.89 108.01,-107.07 112.39,-116.72 117.45,-111.89"/>
</g>
<!-- 5 -->
<g id="node7" class="node">
<title>5</title>
<ellipse fill="none" stroke="black" cx="90" cy="-18" rx="27" ry="18"/>
<text text-anchor="middle" x="90" y="-12.95" font-family="Times,serif" font-size="14.00">o0</text>
</g>
<!-- 4&#45;&gt;5 -->
<g id="edge7" class="edge">
<title>4&#45;&gt;5</title>
<path fill="none" stroke="black" d="M90,-71.7C90,-64.41 90,-55.73 90,-47.54"/>
<polygon fill="black" stroke="black" points="93.5,-47.62 90,-37.62 86.5,-47.62 93.5,-47.62"/>
</g>
<!-- 3&#45;&gt;4 -->
<g id="edge6" class="edge">
<title>3&#45;&gt;4</title>
<path fill="none" stroke="blue" d="M40.36,-146.15C48.49,-137.12 59.06,-125.38 68.35,-115.05"/>
<polygon fill="blue" stroke="blue" points="70.68,-117.7 74.77,-107.92 65.48,-113.01 70.68,-117.7"/>
</g>
</g>
</svg>
