<?xml version="1.0" encoding="UTF-8" standalone="no"?>
<!DOCTYPE svg PUBLIC "-//W3C//DTD SVG 1.1//EN"
 "http://www.w3.org/Graphics/SVG/1.1/DTD/svg11.dtd">
<!-- Generated by graphviz version 2.43.0 (0)
 -->
<!-- Title: root Pages: 1 -->
<svg width="375pt" height="332pt"
 viewBox="0.00 0.00 374.55 332.00" xmlns="http://www.w3.org/2000/svg" xmlns:xlink="http://www.w3.org/1999/xlink">
<g id="graph0" class="graph" transform="scale(1 1) rotate(0) translate(4 328)">
<title>root</title>
<polygon fill="white" stroke="transparent" points="-4,4 -4,-328 370.55,-328 370.55,4 -4,4"/>
<!-- 0 -->
<g id="node1" class="node">
<title>0</title>
<ellipse fill="none" stroke="black" cx="154" cy="-306" rx="27" ry="18"/>
<text text-anchor="middle" x="154" y="-302.3" font-family="Times,serif" font-size="14.00">i0</text>
</g>
<!-- 2 -->
<g id="node2" class="node">
<title>2</title>
<ellipse fill="none" stroke="black" cx="84" cy="-234" rx="39.79" ry="18"/>
<text text-anchor="middle" x="84" y="-230.3" font-family="Times,serif" font-size="14.00">Minus</text>
</g>
<!-- 0&#45;&gt;2 -->
<g id="edge1" class="edge">
<title>0&#45;&gt;2</title>
<path fill="none" stroke="blue" d="M139.5,-290.5C130.13,-281.13 117.73,-268.73 107.03,-258.03"/>
<polygon fill="blue" stroke="blue" points="109.5,-255.55 99.95,-250.95 104.55,-260.5 109.5,-255.55"/>
</g>
<!-- 4 -->
<g id="node3" class="node">
<title>4</title>
<ellipse fill="none" stroke="black" cx="91" cy="-90" rx="30.59" ry="18"/>
<text text-anchor="middle" x="91" y="-86.3" font-family="Times,serif" font-size="14.00">Plus</text>
</g>
<!-- 0&#45;&gt;4 -->
<g id="edge2" class="edge">
<title>0&#45;&gt;4</title>
<path fill="none" stroke="red" d="M155.09,-287.73C156.33,-257.34 155.97,-192.89 135,-144 130.16,-132.72 122.14,-121.97 114.25,-113.14"/>
<polygon fill="red" stroke="red" points="116.56,-110.48 107.15,-105.6 111.46,-115.28 116.56,-110.48"/>
</g>
<!-- 3 -->
<g id="node5" class="node">
<title>3</title>
<ellipse fill="none" stroke="black" cx="27" cy="-162" rx="27" ry="18"/>
<text text-anchor="middle" x="27" y="-158.3" font-family="Times,serif" font-size="14.00">U</text>
</g>
<!-- 2&#45;&gt;3 -->
<g id="edge4" class="edge">
<title>2&#45;&gt;3</title>
<path fill="none" stroke="black" d="M70.78,-216.76C63.38,-207.68 54.03,-196.19 45.87,-186.18"/>
<polygon fill="black" stroke="black" points="48.4,-183.73 39.37,-178.19 42.97,-188.15 48.4,-183.73"/>
</g>
<!-- 6 -->
<g id="node6" class="node">
<title>6</title>
<ellipse fill="none" stroke="black" cx="99" cy="-162" rx="27" ry="18"/>
<text text-anchor="middle" x="99" y="-158.3" font-family="Times,serif" font-size="14.00">o1</text>
</g>
<!-- 2&#45;&gt;6 -->
<g id="edge5" class="edge">
<title>2&#45;&gt;6</title>
<path fill="none" stroke="black" d="M87.63,-216.05C89.3,-208.26 91.32,-198.82 93.2,-190.08"/>
<polygon fill="black" stroke="black" points="96.63,-190.79 95.3,-180.28 89.78,-189.32 96.63,-190.79"/>
</g>
<!-- 5 -->
<g id="node7" class="node">
<title>5</title>
<ellipse fill="none" stroke="black" cx="91" cy="-18" rx="27" ry="18"/>
<text text-anchor="middle" x="91" y="-14.3" font-family="Times,serif" font-size="14.00">o0</text>
</g>
<!-- 4&#45;&gt;5 -->
<g id="edge7" class="edge">
<title>4&#45;&gt;5</title>
<path fill="none" stroke="black" d="M91,-71.7C91,-63.98 91,-54.71 91,-46.11"/>
<polygon fill="black" stroke="black" points="94.5,-46.1 91,-36.1 87.5,-46.1 94.5,-46.1"/>
</g>
<!-- 1 -->
<g id="node4" class="node">
<title>1</title>
<ellipse fill="none" stroke="black" cx="82" cy="-306" rx="27" ry="18"/>
<text text-anchor="middle" x="82" y="-302.3" font-family="Times,serif" font-size="14.00">i1</text>
</g>
<!-- 1&#45;&gt;2 -->
<g id="edge3" class="edge">
<title>1&#45;&gt;2</title>
<path fill="none" stroke="red" d="M82.49,-287.7C82.71,-279.98 82.98,-270.71 83.23,-262.11"/>
<polygon fill="red" stroke="red" points="86.72,-262.2 83.51,-252.1 79.73,-262 86.72,-262.2"/>
</g>
<!-- 3&#45;&gt;4 -->
<g id="edge6" class="edge">
<title>3&#45;&gt;4</title>
<path fill="none" stroke="blue" d="M40.57,-146.15C49.11,-136.82 60.3,-124.57 69.97,-114"/>
<polygon fill="blue" stroke="blue" points="72.84,-116.05 77,-106.31 67.67,-111.33 72.84,-116.05"/>
</g>
<!-- 0_gv1 -->
<g id="node8" class="node">
<title>0_gv1</title>
<ellipse fill="none" stroke="black" cx="209" cy="-234" rx="27" ry="18"/>
<text text-anchor="middle" x="209" y="-230.3" font-family="Times,serif" font-size="14.00">i0</text>
</g>
<!-- 3_gv1 -->
<g id="node9" class="node">
<title>3_gv1</title>
<ellipse fill="none" stroke="black" cx="264" cy="-162" rx="39.79" ry="18"/>
<text text-anchor="middle" x="264" y="-158.3" font-family="Times,serif" font-size="14.00">Minus</text>
</g>
<!-- 0_gv1&#45;&gt;3_gv1 -->
<g id="edge8" class="edge">
<title>0_gv1&#45;&gt;3_gv1</title>
<path fill="none" stroke="red" d="M220.93,-217.81C227.94,-208.89 236.97,-197.41 244.94,-187.26"/>
<polygon fill="red" stroke="red" points="247.9,-189.16 251.32,-179.13 242.39,-184.83 247.9,-189.16"/>
</g>
<!-- 4_gv1 -->
<g id="node12" class="node">
<title>4_gv1</title>
<ellipse fill="none" stroke="black" cx="336" cy="-90" rx="30.59" ry="18"/>
<text text-anchor="middle" x="336" y="-86.3" font-family="Times,serif" font-size="14.00">Plus</text>
</g>
<!-- 3_gv1&#45;&gt;4_gv1 -->
<g id="edge12" class="edge">
<title>3_gv1&#45;&gt;4_gv1</title>
<path fill="none" stroke="blue" d="M279.98,-145.46C289.71,-136 302.31,-123.75 313.1,-113.27"/>
<polygon fill="blue" stroke="blue" points="315.83,-115.49 320.56,-106.01 310.95,-110.47 315.83,-115.49"/>
</g>
<!-- 5_gv1 -->
<g id="node13" class="node">
<title>5_gv1</title>
<ellipse fill="none" stroke="black" cx="260" cy="-90" rx="27" ry="18"/>
<text text-anchor="middle" x="260" y="-86.3" font-family="Times,serif" font-size="14.00">o0</text>
</g>
<!-- 3_gv1&#45;&gt;5_gv1 -->
<g id="edge13" class="edge">
<title>3_gv1&#45;&gt;5_gv1</title>
<path fill="none" stroke="black" d="M263.01,-143.7C262.57,-135.98 262.04,-126.71 261.55,-118.11"/>
<polygon fill="black" stroke="black" points="265.04,-117.89 260.98,-108.1 258.05,-118.29 265.04,-117.89"/>
</g>
<!-- 1_gv1 -->
<g id="node10" class="node">
<title>1_gv1</title>
<ellipse fill="none" stroke="black" cx="308" cy="-306" rx="27" ry="18"/>
<text text-anchor="middle" x="308" y="-302.3" font-family="Times,serif" font-size="14.00">i1</text>
</g>
<!-- 2_gv1 -->
<g id="node11" class="node">
<title>2_gv1</title>
<ellipse fill="none" stroke="black" cx="281" cy="-234" rx="27" ry="18"/>
<text text-anchor="middle" x="281" y="-230.3" font-family="Times,serif" font-size="14.00">U</text>
</g>
<!-- 1_gv1&#45;&gt;2_gv1 -->
<g id="edge9" class="edge">
<title>1_gv1&#45;&gt;2_gv1</title>
<path fill="none" stroke="black" d="M301.6,-288.41C298.49,-280.34 294.67,-270.43 291.17,-261.35"/>
<polygon fill="black" stroke="black" points="294.4,-260.03 287.54,-251.96 287.87,-262.55 294.4,-260.03"/>
</g>
<!-- 1_gv1&#45;&gt;4_gv1 -->
<g id="edge10" class="edge">
<title>1_gv1&#45;&gt;4_gv1</title>
<path fill="none" stroke="red" d="M311.14,-287.85C312.98,-277.49 315.27,-264.01 317,-252 323.73,-205.2 329.81,-150.48 333.19,-118.4"/>
<polygon fill="red" stroke="red" points="336.68,-118.74 334.24,-108.43 329.72,-118.01 336.68,-118.74"/>
</g>
<!-- 2_gv1&#45;&gt;3_gv1 -->
<g id="edge11" class="edge">
<title>2_gv1&#45;&gt;3_gv1</title>
<path fill="none" stroke="blue" d="M276.88,-216.05C274.99,-208.26 272.7,-198.82 270.58,-190.08"/>
<polygon fill="blue" stroke="blue" points="273.96,-189.17 268.2,-180.28 267.15,-190.82 273.96,-189.17"/>
</g>
<!-- 6_gv1 -->
<g id="node14" class="node">
<title>6_gv1</title>
<ellipse fill="none" stroke="black" cx="336" cy="-18" rx="27" ry="18"/>
<text text-anchor="middle" x="336" y="-14.3" font-family="Times,serif" font-size="14.00">o1</text>
</g>
<!-- 4_gv1&#45;&gt;6_gv1 -->
<g id="edge14" class="edge">
<title>4_gv1&#45;&gt;6_gv1</title>
<path fill="none" stroke="black" d="M336,-71.7C336,-63.98 336,-54.71 336,-46.11"/>
<polygon fill="black" stroke="black" points="339.5,-46.1 336,-36.1 332.5,-46.1 339.5,-46.1"/>
</g>
</g>
</svg>
