<?xml version="1.0" encoding="UTF-8" standalone="no"?>
<!DOCTYPE svg PUBLIC "-//W3C//DTD SVG 1.1//EN"
 "http://www.w3.org/Graphics/SVG/1.1/DTD/svg11.dtd">
<!-- Generated by graphviz version 12.2.1 (20241206.2353)
 -->
<!-- Title: root Pages: 1 -->
<svg width="150pt" height="260pt"
 viewBox="0.00 0.00 149.97 260.00" xmlns="http://www.w3.org/2000/svg" xmlns:xlink="http://www.w3.org/1999/xlink">
<g id="graph0" class="graph" transform="scale(1 1) rotate(0) translate(4 256)">
<title>root</title>
<polygon fill="white" stroke="none" points="-4,4 -4,-256 145.97,-256 145.97,4 -4,4"/>
<!-- 0 -->
<g id="node1" class="node">
<title>0</title>
<ellipse fill="none" stroke="black" cx="31" cy="-162" rx="27" ry="18"/>
<text text-anchor="middle" x="31" y="-156.95" font-family="Times,serif" font-size="14.00">i0</text>
</g>
<!-- 3 -->
<g id="node2" class="node">
<title>3</title>
<ellipse fill="none" stroke="black" cx="27" cy="-90" rx="27" ry="18"/>
<text text-anchor="middle" x="27" y="-84.95" font-family="Times,serif" font-size="14.00">Plus</text>
</g>
<!-- 0&#45;&gt;3 -->
<g id="edge1" class="edge">
<title>0&#45;&gt;3</title>
<path fill="none" stroke="red" d="M30.01,-143.7C29.59,-136.41 29.1,-127.73 28.63,-119.54"/>
<polygon fill="red" stroke="red" points="32.13,-119.4 28.06,-109.62 25.14,-119.8 32.13,-119.4"/>
</g>
<!-- 4 -->
<g id="node3" class="node">
<title>4</title>
<ellipse fill="none" stroke="black" cx="107" cy="-90" rx="34.97" ry="18"/>
<text text-anchor="middle" x="107" y="-84.95" font-family="Times,serif" font-size="14.00">Minus</text>
</g>
<!-- 0&#45;&gt;4 -->
<g id="edge2" class="edge">
<title>0&#45;&gt;4</title>
<path fill="none" stroke="red" d="M46.38,-146.83C56.71,-137.32 70.55,-124.57 82.4,-113.66"/>
<polygon fill="red" stroke="red" points="84.49,-116.49 89.48,-107.14 79.75,-111.34 84.49,-116.49"/>
</g>
<!-- 6 -->
<g id="node6" class="node">
<title>6</title>
<ellipse fill="none" stroke="black" cx="27" cy="-18" rx="27" ry="18"/>
<text text-anchor="middle" x="27" y="-12.95" font-family="Times,serif" font-size="14.00">o1</text>
</g>
<!-- 3&#45;&gt;6 -->
<g id="edge6" class="edge">
<title>3&#45;&gt;6</title>
<path fill="none" stroke="black" d="M27,-71.7C27,-64.41 27,-55.73 27,-47.54"/>
<polygon fill="black" stroke="black" points="30.5,-47.62 27,-37.62 23.5,-47.62 30.5,-47.62"/>
</g>
<!-- 5 -->
<g id="node7" class="node">
<title>5</title>
<ellipse fill="none" stroke="black" cx="107" cy="-18" rx="27" ry="18"/>
<text text-anchor="middle" x="107" y="-12.95" font-family="Times,serif" font-size="14.00">o0</text>
</g>
<!-- 4&#45;&gt;5 -->
<g id="edge7" class="edge">
<title>4&#45;&gt;5</title>
<path fill="none" stroke="black" d="M107,-71.7C107,-64.41 107,-55.73 107,-47.54"/>
<polygon fill="black" stroke="black" points="110.5,-47.62 107,-37.62 103.5,-47.62 110.5,-47.62"/>
</g>
<!-- 1 -->
<g id="node4" class="node">
<title>1</title>
<ellipse fill="none" stroke="black" cx="105" cy="-234" rx="27" ry="18"/>
<text text-anchor="middle" x="105" y="-228.95" font-family="Times,serif" font-size="14.00">i1</text>
</g>
<!-- 2 -->
<g id="node5" class="node">
<title>2</title>
<ellipse fill="none" stroke="black" cx="105" cy="-162" rx="27" ry="18"/>
<text text-anchor="middle" x="105" y="-156.95" font-family="Times,serif" font-size="14.00">U</text>
</g>
<!-- 1&#45;&gt;2 -->
<g id="edge3" class="edge">
<title>1&#45;&gt;2</title>
<path fill="none" stroke="black" d="M105,-215.7C105,-208.41 105,-199.73 105,-191.54"/>
<polygon fill="black" stroke="black" points="108.5,-191.62 105,-181.62 101.5,-191.62 108.5,-191.62"/>
</g>
<!-- 2&#45;&gt;3 -->
<g id="edge4" class="edge">
<title>2&#45;&gt;3</title>
<path fill="none" stroke="blue" d="M89.59,-147.17C78.55,-137.26 63.47,-123.73 50.88,-112.43"/>
<polygon fill="blue" stroke="blue" points="53.55,-110.13 43.77,-106.05 48.88,-115.34 53.55,-110.13"/>
</g>
<!-- 2&#45;&gt;4 -->
<g id="edge5" class="edge">
<title>2&#45;&gt;4</title>
<path fill="none" stroke="blue" d="M105.49,-143.7C105.7,-136.41 105.95,-127.73 106.18,-119.54"/>
<polygon fill="blue" stroke="blue" points="109.68,-119.71 106.47,-109.62 102.68,-119.51 109.68,-119.71"/>
</g>
</g>
</svg>
